<svg width="850" height="300" viewBox="0 0 850 300" fill="none" xmlns="http://www.w3.org/2000/svg">
  <defs>
    <linearGradient id="areaGradient" x1="0" y1="0" x2="0" y2="1">
      <stop offset="0%" stop-color="#00FFAA" stop-opacity="0.4"/>
      <stop offset="100%" stop-color="#00FFAA" stop-opacity="0"/>
    </linearGradient>
    <filter id="glow">
      <feGaussianBlur stdDeviation="2" result="coloredBlur"/>
      <feMerge>
        <feMergeNode in="coloredBlur"/>
        <feMergeNode in="SourceGraphic"/>
      </feMerge>
    </filter>
  </defs>

  <style>
    :root { 
      --bg: #0d1117; 
      --accent: #00FFAA; 
      --text: #8b949e;
      --title-text: #00FFAA;
    }
    @media (prefers-color-scheme: light) {
      :root { 
        --bg: #ffffff; 
        --accent: #0969da; 
        --text: #57606a;
        --title-text: #1f2328;
      }
    }

    .bg { fill: var(--bg); stroke: #30363d; stroke-width: 1; }
    .grid-line { stroke: var(--text); stroke-opacity: 0.15; stroke-width: 1; stroke-dasharray: 3,3; }
    .axis-label { fill: var(--text); font-family: 'Segoe UI', Tahoma, sans-serif; font-size: 11px; }
    .title { fill: var(--title-text); font-family: 'Segoe UI', Tahoma, sans-serif; font-size: 18px; font-weight: bold; }
    
    .trend-line { 
      stroke: var(--accent); 
      stroke-width: 3; 
      fill: none; 
      filter: url(#glow);
      stroke-dasharray: 2000;
      stroke-dashoffset: 2000;
      animation: drawLine 2s forwards ease-in-out;
    }
    
    .trend-area { 
      fill: url(#areaGradient); 
      opacity: 0;
      animation: fadeIn 1.5s 0.5s forwards;
    }

    .dot { 
      opacity: 0; 
      animation: fadeIn 0.3s forwards;
      stroke: var(--accent);
      stroke-width: 1;
    }

    @keyframes drawLine { to { stroke-dashoffset: 0; } }
    @keyframes fadeIn { from { opacity: 0; } to { opacity: 1; } }
  </style>

  <rect width="850" height="300" rx="12" class="bg"/>
  
  <text x="30" y="40" class="title">Activity Trends</text>
  <text x="820" y="40" class="axis-label" text-anchor="end">Last 30 Days</text>
  
  <g class="grid">
    <line x1="50" y1="240.0" x2="810" y2="240.0" class="grid-line" /><text x="38" y="244.0" class="axis-label" text-anchor="end">0</text><line x1="50" y1="155.0" x2="810" y2="155.0" class="grid-line" /><text x="38" y="159.0" class="axis-label" text-anchor="end">30</text><line x1="50" y1="70.0" x2="810" y2="70.0" class="grid-line" /><text x="38" y="74.0" class="axis-label" text-anchor="end">60</text><line x1="50.0" y1="70" x2="50.0" y2="240" class="grid-line" /><text x="50.0" y="265" class="axis-label" text-anchor="middle">22</text><line x1="181.0344827586207" y1="70" x2="181.0344827586207" y2="240" class="grid-line" /><text x="181.0344827586207" y="265" class="axis-label" text-anchor="middle">27</text><line x1="312.0689655172414" y1="70" x2="312.0689655172414" y2="240" class="grid-line" /><text x="312.0689655172414" y="265" class="axis-label" text-anchor="middle">02</text><line x1="443.1034482758621" y1="70" x2="443.1034482758621" y2="240" class="grid-line" /><text x="443.1034482758621" y="265" class="axis-label" text-anchor="middle">07</text><line x1="574.1379310344828" y1="70" x2="574.1379310344828" y2="240" class="grid-line" /><text x="574.1379310344828" y="265" class="axis-label" text-anchor="middle">12</text><line x1="705.1724137931035" y1="70" x2="705.1724137931035" y2="240" class="grid-line" /><text x="705.1724137931035" y="265" class="axis-label" text-anchor="middle">17</text>
  </g>

  <path d="M 50.0,240.0 C 63.10344827586207,240.0 63.10344827586207,240.0 76.20689655172414,240.0 C 89.31034482758622,240.0 89.31034482758622,240.0 102.41379310344828,240.0 C 115.51724137931035,240.0 115.51724137931035,208.83333333333334 128.6206896551724,208.83333333333334 C 141.72413793103448,208.83333333333334 141.72413793103448,240.0 154.82758620689657,240.0 C 167.93103448275863,240.0 167.93103448275863,220.16666666666666 181.0344827586207,220.16666666666666 C 194.13793103448276,220.16666666666666 194.13793103448276,121.0 207.24137931034483,121.0 C 220.34482758620692,121.0 220.34482758620692,223.0 233.44827586206898,223.0 C 246.55172413793105,223.0 246.55172413793105,211.66666666666666 259.65517241379314,211.66666666666666 C 272.7586206896552,211.66666666666666 272.7586206896552,223.0 285.8620689655172,223.0 C 298.9655172413793,223.0 298.9655172413793,197.5 312.0689655172414,197.5 C 325.1724137931035,197.5 325.1724137931035,214.5 338.2758620689655,214.5 C 351.37931034482756,214.5 351.37931034482756,228.66666666666666 364.48275862068965,228.66666666666666 C 377.58620689655174,228.66666666666666 377.58620689655174,240.0 390.6896551724138,240.0 C 403.7931034482759,240.0 403.7931034482759,223.0 416.89655172413796,223.0 C 430.0,223.0 430.0,200.33333333333331 443.1034482758621,200.33333333333331 C 456.2068965517242,200.33333333333331 456.2068965517242,81.33333333333331 469.3103448275862,81.33333333333331 C 482.41379310344826,81.33333333333331 482.41379310344826,208.83333333333334 495.51724137931035,208.83333333333334 C 508.6206896551724,208.83333333333334 508.6206896551724,160.66666666666666 521.7241379310344,160.66666666666666 C 534.8275862068965,160.66666666666666 534.8275862068965,174.83333333333331 547.9310344827586,174.83333333333331 C 561.0344827586207,174.83333333333331 561.0344827586207,203.16666666666666 574.1379310344828,203.16666666666666 C 587.2413793103449,203.16666666666666 587.2413793103449,191.83333333333331 600.3448275862069,191.83333333333331 C 613.448275862069,191.83333333333331 613.448275862069,234.33333333333334 626.551724137931,234.33333333333334 C 639.6551724137931,234.33333333333334 639.6551724137931,240.0 652.7586206896552,240.0 C 665.8620689655172,240.0 665.8620689655172,237.16666666666666 678.9655172413793,237.16666666666666 C 692.0689655172414,237.16666666666666 692.0689655172414,234.33333333333334 705.1724137931035,234.33333333333334 C 718.2758620689656,234.33333333333334 718.2758620689656,231.5 731.3793103448276,231.5 C 744.4827586206897,231.5 744.4827586206897,234.33333333333334 757.5862068965517,234.33333333333334 C 770.6896551724138,234.33333333333334 770.6896551724138,240.0 783.7931034482759,240.0 C 796.8965517241379,240.0 796.8965517241379,240.0 810.0,240.0 L 810.0,240 L 50.0,240 Z" class="trend-area"/>
  <path d="M 50.0,240.0 C 63.10344827586207,240.0 63.10344827586207,240.0 76.20689655172414,240.0 C 89.31034482758622,240.0 89.31034482758622,240.0 102.41379310344828,240.0 C 115.51724137931035,240.0 115.51724137931035,208.83333333333334 128.6206896551724,208.83333333333334 C 141.72413793103448,208.83333333333334 141.72413793103448,240.0 154.82758620689657,240.0 C 167.93103448275863,240.0 167.93103448275863,220.16666666666666 181.0344827586207,220.16666666666666 C 194.13793103448276,220.16666666666666 194.13793103448276,121.0 207.24137931034483,121.0 C 220.34482758620692,121.0 220.34482758620692,223.0 233.44827586206898,223.0 C 246.55172413793105,223.0 246.55172413793105,211.66666666666666 259.65517241379314,211.66666666666666 C 272.7586206896552,211.66666666666666 272.7586206896552,223.0 285.8620689655172,223.0 C 298.9655172413793,223.0 298.9655172413793,197.5 312.0689655172414,197.5 C 325.1724137931035,197.5 325.1724137931035,214.5 338.2758620689655,214.5 C 351.37931034482756,214.5 351.37931034482756,228.66666666666666 364.48275862068965,228.66666666666666 C 377.58620689655174,228.66666666666666 377.58620689655174,240.0 390.6896551724138,240.0 C 403.7931034482759,240.0 403.7931034482759,223.0 416.89655172413796,223.0 C 430.0,223.0 430.0,200.33333333333331 443.1034482758621,200.33333333333331 C 456.2068965517242,200.33333333333331 456.2068965517242,81.33333333333331 469.3103448275862,81.33333333333331 C 482.41379310344826,81.33333333333331 482.41379310344826,208.83333333333334 495.51724137931035,208.83333333333334 C 508.6206896551724,208.83333333333334 508.6206896551724,160.66666666666666 521.7241379310344,160.66666666666666 C 534.8275862068965,160.66666666666666 534.8275862068965,174.83333333333331 547.9310344827586,174.83333333333331 C 561.0344827586207,174.83333333333331 561.0344827586207,203.16666666666666 574.1379310344828,203.16666666666666 C 587.2413793103449,203.16666666666666 587.2413793103449,191.83333333333331 600.3448275862069,191.83333333333331 C 613.448275862069,191.83333333333331 613.448275862069,234.33333333333334 626.551724137931,234.33333333333334 C 639.6551724137931,234.33333333333334 639.6551724137931,240.0 652.7586206896552,240.0 C 665.8620689655172,240.0 665.8620689655172,237.16666666666666 678.9655172413793,237.16666666666666 C 692.0689655172414,237.16666666666666 692.0689655172414,234.33333333333334 705.1724137931035,234.33333333333334 C 718.2758620689656,234.33333333333334 718.2758620689656,231.5 731.3793103448276,231.5 C 744.4827586206897,231.5 744.4827586206897,234.33333333333334 757.5862068965517,234.33333333333334 C 770.6896551724138,234.33333333333334 770.6896551724138,240.0 783.7931034482759,240.0 C 796.8965517241379,240.0 796.8965517241379,240.0 810.0,240.0" class="trend-line"/>
  
  <g class="dots">
    <circle cx="50.0" cy="240.0" r="3.5" fill="white" class="dot" style="animation-delay: 0.0s;"/><circle cx="76.20689655172414" cy="240.0" r="3.5" fill="white" class="dot" style="animation-delay: 0.02666666666666667s;"/><circle cx="102.41379310344828" cy="240.0" r="3.5" fill="white" class="dot" style="animation-delay: 0.05333333333333334s;"/><circle cx="128.6206896551724" cy="208.83333333333334" r="3.5" fill="white" class="dot" style="animation-delay: 0.08000000000000002s;"/><circle cx="154.82758620689657" cy="240.0" r="3.5" fill="white" class="dot" style="animation-delay: 0.10666666666666667s;"/><circle cx="181.0344827586207" cy="220.16666666666666" r="3.5" fill="white" class="dot" style="animation-delay: 0.13333333333333333s;"/><circle cx="207.24137931034483" cy="121.0" r="3.5" fill="white" class="dot" style="animation-delay: 0.16000000000000003s;"/><circle cx="233.44827586206898" cy="223.0" r="3.5" fill="white" class="dot" style="animation-delay: 0.18666666666666668s;"/><circle cx="259.65517241379314" cy="211.66666666666666" r="3.5" fill="white" class="dot" style="animation-delay: 0.21333333333333335s;"/><circle cx="285.8620689655172" cy="223.0" r="3.5" fill="white" class="dot" style="animation-delay: 0.24s;"/><circle cx="312.0689655172414" cy="197.5" r="3.5" fill="white" class="dot" style="animation-delay: 0.26666666666666666s;"/><circle cx="338.2758620689655" cy="214.5" r="3.5" fill="white" class="dot" style="animation-delay: 0.29333333333333333s;"/><circle cx="364.48275862068965" cy="228.66666666666666" r="3.5" fill="white" class="dot" style="animation-delay: 0.32000000000000006s;"/><circle cx="390.6896551724138" cy="240.0" r="3.5" fill="white" class="dot" style="animation-delay: 0.3466666666666667s;"/><circle cx="416.89655172413796" cy="223.0" r="3.5" fill="white" class="dot" style="animation-delay: 0.37333333333333335s;"/><circle cx="443.1034482758621" cy="200.33333333333331" r="3.5" fill="white" class="dot" style="animation-delay: 0.4s;"/><circle cx="469.3103448275862" cy="81.33333333333331" r="3.5" fill="white" class="dot" style="animation-delay: 0.4266666666666667s;"/><circle cx="495.51724137931035" cy="208.83333333333334" r="3.5" fill="white" class="dot" style="animation-delay: 0.45333333333333337s;"/><circle cx="521.7241379310344" cy="160.66666666666666" r="3.5" fill="white" class="dot" style="animation-delay: 0.48s;"/><circle cx="547.9310344827586" cy="174.83333333333331" r="3.5" fill="white" class="dot" style="animation-delay: 0.5066666666666667s;"/><circle cx="574.1379310344828" cy="203.16666666666666" r="3.5" fill="white" class="dot" style="animation-delay: 0.5333333333333333s;"/><circle cx="600.3448275862069" cy="191.83333333333331" r="3.5" fill="white" class="dot" style="animation-delay: 0.5599999999999999s;"/><circle cx="626.551724137931" cy="234.33333333333334" r="3.5" fill="white" class="dot" style="animation-delay: 0.5866666666666667s;"/><circle cx="652.7586206896552" cy="240.0" r="3.5" fill="white" class="dot" style="animation-delay: 0.6133333333333334s;"/><circle cx="678.9655172413793" cy="237.16666666666666" r="3.5" fill="white" class="dot" style="animation-delay: 0.6400000000000001s;"/><circle cx="705.1724137931035" cy="234.33333333333334" r="3.5" fill="white" class="dot" style="animation-delay: 0.6666666666666667s;"/><circle cx="731.3793103448276" cy="231.5" r="3.5" fill="white" class="dot" style="animation-delay: 0.6933333333333334s;"/><circle cx="757.5862068965517" cy="234.33333333333334" r="3.5" fill="white" class="dot" style="animation-delay: 0.7200000000000001s;"/><circle cx="783.7931034482759" cy="240.0" r="3.5" fill="white" class="dot" style="animation-delay: 0.7466666666666667s;"/><circle cx="810.0" cy="240.0" r="3.5" fill="white" class="dot" style="animation-delay: 0.7733333333333334s;"/>
  </g>
</svg>