<svg width="850" height="300" viewBox="0 0 850 300" fill="none" xmlns="http://www.w3.org/2000/svg">
  <defs>
    <linearGradient id="areaGradient" x1="0" y1="0" x2="0" y2="1">
      <stop offset="0%" stop-color="#00FFAA" stop-opacity="0.4"/>
      <stop offset="100%" stop-color="#00FFAA" stop-opacity="0"/>
    </linearGradient>
    <filter id="glow">
      <feGaussianBlur stdDeviation="2" result="coloredBlur"/>
      <feMerge>
        <feMergeNode in="coloredBlur"/>
        <feMergeNode in="SourceGraphic"/>
      </feMerge>
    </filter>
  </defs>

  <style>
    :root { 
      --bg: #0d1117; 
      --accent: #00FFAA; 
      --text: #8b949e;
      --title-text: #00FFAA;
    }
    @media (prefers-color-scheme: light) {
      :root { 
        --bg: #ffffff; 
        --accent: #0969da; 
        --text: #57606a;
        --title-text: #1f2328;
      }
    }

    .bg { fill: var(--bg); stroke: #30363d; stroke-width: 1; }
    .grid-line { stroke: var(--text); stroke-opacity: 0.15; stroke-width: 1; stroke-dasharray: 3,3; }
    .axis-label { fill: var(--text); font-family: 'Segoe UI', Tahoma, sans-serif; font-size: 11px; }
    .title { fill: var(--title-text); font-family: 'Segoe UI', Tahoma, sans-serif; font-size: 18px; font-weight: bold; }
    
    .trend-line { 
      stroke: var(--accent); 
      stroke-width: 3; 
      fill: none; 
      filter: url(#glow);
      stroke-dasharray: 2000;
      stroke-dashoffset: 2000;
      animation: drawLine 2s forwards ease-in-out;
    }
    
    .trend-area { 
      fill: url(#areaGradient); 
      opacity: 0;
      animation: fadeIn 1.5s 0.5s forwards;
    }

    .dot { 
      opacity: 0; 
      animation: fadeIn 0.3s forwards;
      stroke: var(--accent);
      stroke-width: 1;
    }

    @keyframes drawLine { to { stroke-dashoffset: 0; } }
    @keyframes fadeIn { from { opacity: 0; } to { opacity: 1; } }
  </style>

  <rect width="850" height="300" rx="12" class="bg"/>
  
  <text x="30" y="40" class="title">Activity Trends</text>
  <text x="820" y="40" class="axis-label" text-anchor="end">Last 30 Days</text>
  
  <g class="grid">
    <line x1="50" y1="240.0" x2="810" y2="240.0" class="grid-line" /><text x="38" y="244.0" class="axis-label" text-anchor="end">0</text><line x1="50" y1="155.0" x2="810" y2="155.0" class="grid-line" /><text x="38" y="159.0" class="axis-label" text-anchor="end">35</text><line x1="50" y1="70.0" x2="810" y2="70.0" class="grid-line" /><text x="38" y="74.0" class="axis-label" text-anchor="end">70</text><line x1="50.0" y1="70" x2="50.0" y2="240" class="grid-line" /><text x="50.0" y="265" class="axis-label" text-anchor="middle">25</text><line x1="181.0344827586207" y1="70" x2="181.0344827586207" y2="240" class="grid-line" /><text x="181.0344827586207" y="265" class="axis-label" text-anchor="middle">30</text><line x1="312.0689655172414" y1="70" x2="312.0689655172414" y2="240" class="grid-line" /><text x="312.0689655172414" y="265" class="axis-label" text-anchor="middle">05</text><line x1="443.1034482758621" y1="70" x2="443.1034482758621" y2="240" class="grid-line" /><text x="443.1034482758621" y="265" class="axis-label" text-anchor="middle">10</text><line x1="574.1379310344828" y1="70" x2="574.1379310344828" y2="240" class="grid-line" /><text x="574.1379310344828" y="265" class="axis-label" text-anchor="middle">15</text><line x1="705.1724137931035" y1="70" x2="705.1724137931035" y2="240" class="grid-line" /><text x="705.1724137931035" y="265" class="axis-label" text-anchor="middle">20</text>
  </g>

  <path d="M 50.0,240.0 C 63.10344827586207,240.0 63.10344827586207,240.0 76.20689655172414,240.0 C 89.31034482758622,240.0 89.31034482758622,240.0 102.41379310344828,240.0 C 115.51724137931035,240.0 115.51724137931035,240.0 128.6206896551724,240.0 C 141.72413793103448,240.0 141.72413793103448,240.0 154.82758620689657,240.0 C 167.93103448275863,240.0 167.93103448275863,186.57142857142858 181.0344827586207,186.57142857142858 C 194.13793103448276,186.57142857142858 194.13793103448276,240.0 207.24137931034483,240.0 C 220.34482758620692,240.0 220.34482758620692,94.2857142857143 233.44827586206898,94.2857142857143 C 246.55172413793105,94.2857142857143 246.55172413793105,232.71428571428572 259.65517241379314,232.71428571428572 C 272.7586206896552,232.71428571428572 272.7586206896552,240.0 285.8620689655172,240.0 C 298.9655172413793,240.0 298.9655172413793,227.85714285714286 312.0689655172414,227.85714285714286 C 325.1724137931035,227.85714285714286 325.1724137931035,232.71428571428572 338.2758620689655,232.71428571428572 C 351.37931034482756,232.71428571428572 351.37931034482756,240.0 364.48275862068965,240.0 C 377.58620689655174,240.0 377.58620689655174,223.0 390.6896551724138,223.0 C 403.7931034482759,223.0 403.7931034482759,240.0 416.89655172413796,240.0 C 430.0,240.0 430.0,240.0 443.1034482758621,240.0 C 456.2068965517242,240.0 456.2068965517242,240.0 469.3103448275862,240.0 C 482.41379310344826,240.0 482.41379310344826,240.0 495.51724137931035,240.0 C 508.6206896551724,240.0 508.6206896551724,240.0 521.7241379310344,240.0 C 534.8275862068965,240.0 534.8275862068965,240.0 547.9310344827586,240.0 C 561.0344827586207,240.0 561.0344827586207,240.0 574.1379310344828,240.0 C 587.2413793103449,240.0 587.2413793103449,240.0 600.3448275862069,240.0 C 613.448275862069,240.0 613.448275862069,240.0 626.551724137931,240.0 C 639.6551724137931,240.0 639.6551724137931,240.0 652.7586206896552,240.0 C 665.8620689655172,240.0 665.8620689655172,240.0 678.9655172413793,240.0 C 692.0689655172414,240.0 692.0689655172414,237.57142857142858 705.1724137931035,237.57142857142858 C 718.2758620689656,237.57142857142858 718.2758620689656,240.0 731.3793103448276,240.0 C 744.4827586206897,240.0 744.4827586206897,240.0 757.5862068965517,240.0 C 770.6896551724138,240.0 770.6896551724138,237.57142857142858 783.7931034482759,237.57142857142858 C 796.8965517241379,237.57142857142858 796.8965517241379,240.0 810.0,240.0 L 810.0,240 L 50.0,240 Z" class="trend-area"/>
  <path d="M 50.0,240.0 C 63.10344827586207,240.0 63.10344827586207,240.0 76.20689655172414,240.0 C 89.31034482758622,240.0 89.31034482758622,240.0 102.41379310344828,240.0 C 115.51724137931035,240.0 115.51724137931035,240.0 128.6206896551724,240.0 C 141.72413793103448,240.0 141.72413793103448,240.0 154.82758620689657,240.0 C 167.93103448275863,240.0 167.93103448275863,186.57142857142858 181.0344827586207,186.57142857142858 C 194.13793103448276,186.57142857142858 194.13793103448276,240.0 207.24137931034483,240.0 C 220.34482758620692,240.0 220.34482758620692,94.2857142857143 233.44827586206898,94.2857142857143 C 246.55172413793105,94.2857142857143 246.55172413793105,232.71428571428572 259.65517241379314,232.71428571428572 C 272.7586206896552,232.71428571428572 272.7586206896552,240.0 285.8620689655172,240.0 C 298.9655172413793,240.0 298.9655172413793,227.85714285714286 312.0689655172414,227.85714285714286 C 325.1724137931035,227.85714285714286 325.1724137931035,232.71428571428572 338.2758620689655,232.71428571428572 C 351.37931034482756,232.71428571428572 351.37931034482756,240.0 364.48275862068965,240.0 C 377.58620689655174,240.0 377.58620689655174,223.0 390.6896551724138,223.0 C 403.7931034482759,223.0 403.7931034482759,240.0 416.89655172413796,240.0 C 430.0,240.0 430.0,240.0 443.1034482758621,240.0 C 456.2068965517242,240.0 456.2068965517242,240.0 469.3103448275862,240.0 C 482.41379310344826,240.0 482.41379310344826,240.0 495.51724137931035,240.0 C 508.6206896551724,240.0 508.6206896551724,240.0 521.7241379310344,240.0 C 534.8275862068965,240.0 534.8275862068965,240.0 547.9310344827586,240.0 C 561.0344827586207,240.0 561.0344827586207,240.0 574.1379310344828,240.0 C 587.2413793103449,240.0 587.2413793103449,240.0 600.3448275862069,240.0 C 613.448275862069,240.0 613.448275862069,240.0 626.551724137931,240.0 C 639.6551724137931,240.0 639.6551724137931,240.0 652.7586206896552,240.0 C 665.8620689655172,240.0 665.8620689655172,240.0 678.9655172413793,240.0 C 692.0689655172414,240.0 692.0689655172414,237.57142857142858 705.1724137931035,237.57142857142858 C 718.2758620689656,237.57142857142858 718.2758620689656,240.0 731.3793103448276,240.0 C 744.4827586206897,240.0 744.4827586206897,240.0 757.5862068965517,240.0 C 770.6896551724138,240.0 770.6896551724138,237.57142857142858 783.7931034482759,237.57142857142858 C 796.8965517241379,237.57142857142858 796.8965517241379,240.0 810.0,240.0" class="trend-line"/>
  
  <g class="dots">
    <circle cx="50.0" cy="240.0" r="3.5" fill="white" class="dot" style="animation-delay: 0.0s;"/><circle cx="76.20689655172414" cy="240.0" r="3.5" fill="white" class="dot" style="animation-delay: 0.02666666666666667s;"/><circle cx="102.41379310344828" cy="240.0" r="3.5" fill="white" class="dot" style="animation-delay: 0.05333333333333334s;"/><circle cx="128.6206896551724" cy="240.0" r="3.5" fill="white" class="dot" style="animation-delay: 0.08000000000000002s;"/><circle cx="154.82758620689657" cy="240.0" r="3.5" fill="white" class="dot" style="animation-delay: 0.10666666666666667s;"/><circle cx="181.0344827586207" cy="186.57142857142858" r="3.5" fill="white" class="dot" style="animation-delay: 0.13333333333333333s;"/><circle cx="207.24137931034483" cy="240.0" r="3.5" fill="white" class="dot" style="animation-delay: 0.16000000000000003s;"/><circle cx="233.44827586206898" cy="94.2857142857143" r="3.5" fill="white" class="dot" style="animation-delay: 0.18666666666666668s;"/><circle cx="259.65517241379314" cy="232.71428571428572" r="3.5" fill="white" class="dot" style="animation-delay: 0.21333333333333335s;"/><circle cx="285.8620689655172" cy="240.0" r="3.5" fill="white" class="dot" style="animation-delay: 0.24s;"/><circle cx="312.0689655172414" cy="227.85714285714286" r="3.5" fill="white" class="dot" style="animation-delay: 0.26666666666666666s;"/><circle cx="338.2758620689655" cy="232.71428571428572" r="3.5" fill="white" class="dot" style="animation-delay: 0.29333333333333333s;"/><circle cx="364.48275862068965" cy="240.0" r="3.5" fill="white" class="dot" style="animation-delay: 0.32000000000000006s;"/><circle cx="390.6896551724138" cy="223.0" r="3.5" fill="white" class="dot" style="animation-delay: 0.3466666666666667s;"/><circle cx="416.89655172413796" cy="240.0" r="3.5" fill="white" class="dot" style="animation-delay: 0.37333333333333335s;"/><circle cx="443.1034482758621" cy="240.0" r="3.5" fill="white" class="dot" style="animation-delay: 0.4s;"/><circle cx="469.3103448275862" cy="240.0" r="3.5" fill="white" class="dot" style="animation-delay: 0.4266666666666667s;"/><circle cx="495.51724137931035" cy="240.0" r="3.5" fill="white" class="dot" style="animation-delay: 0.45333333333333337s;"/><circle cx="521.7241379310344" cy="240.0" r="3.5" fill="white" class="dot" style="animation-delay: 0.48s;"/><circle cx="547.9310344827586" cy="240.0" r="3.5" fill="white" class="dot" style="animation-delay: 0.5066666666666667s;"/><circle cx="574.1379310344828" cy="240.0" r="3.5" fill="white" class="dot" style="animation-delay: 0.5333333333333333s;"/><circle cx="600.3448275862069" cy="240.0" r="3.5" fill="white" class="dot" style="animation-delay: 0.5599999999999999s;"/><circle cx="626.551724137931" cy="240.0" r="3.5" fill="white" class="dot" style="animation-delay: 0.5866666666666667s;"/><circle cx="652.7586206896552" cy="240.0" r="3.5" fill="white" class="dot" style="animation-delay: 0.6133333333333334s;"/><circle cx="678.9655172413793" cy="240.0" r="3.5" fill="white" class="dot" style="animation-delay: 0.6400000000000001s;"/><circle cx="705.1724137931035" cy="237.57142857142858" r="3.5" fill="white" class="dot" style="animation-delay: 0.6666666666666667s;"/><circle cx="731.3793103448276" cy="240.0" r="3.5" fill="white" class="dot" style="animation-delay: 0.6933333333333334s;"/><circle cx="757.5862068965517" cy="240.0" r="3.5" fill="white" class="dot" style="animation-delay: 0.7200000000000001s;"/><circle cx="783.7931034482759" cy="237.57142857142858" r="3.5" fill="white" class="dot" style="animation-delay: 0.7466666666666667s;"/><circle cx="810.0" cy="240.0" r="3.5" fill="white" class="dot" style="animation-delay: 0.7733333333333334s;"/>
  </g>
</svg>