<svg width="736" height="171" viewBox="0 0 736 171" fill="none" xmlns="http://www.w3.org/2000/svg">
  <style>
    .wv-bg { fill: #0d1117; }
    .wv-border { stroke: #30363d; }
    .wv-cell { fill: #161b22; transform-origin: center; transform-box: fill-box; }
    
    /* DARK THEME ANIMATIONS */
    .wv-l-0 { animation: wv-jump-0 8.0s infinite cubic-bezier(0.4, 0, 0.2, 1); }
    .wv-l-1 { animation: wv-jump-1 8.0s infinite cubic-bezier(0.4, 0, 0.2, 1); }
    .wv-l-2 { animation: wv-jump-2 8.0s infinite cubic-bezier(0.4, 0, 0.2, 1); }
    .wv-l-3 { animation: wv-jump-3 8.0s infinite cubic-bezier(0.4, 0, 0.2, 1); }
    .wv-l-4 { animation: wv-jump-4 8.0s infinite cubic-bezier(0.4, 0, 0.2, 1); }

    @keyframes wv-jump-0 {
      0%, 25%, 100% { transform: translateY(0) scale(1); fill: #161b22; }
      12.5% { transform: translateY(-8px) scale(1.2); fill: #00FFAA; filter: drop-shadow(0 0 5px #00FFAA); }
    }
    @keyframes wv-jump-1 { 0%, 25%, 100% { transform: translateY(0) scale(1); fill: #0e4429; } 12.5% { transform: translateY(-12px) scale(1.3); fill: #fff; filter: drop-shadow(0 0 8px #00FFAA); } }
    @keyframes wv-jump-2 { 0%, 25%, 100% { transform: translateY(0) scale(1); fill: #006d3a; } 12.5% { transform: translateY(-12px) scale(1.3); fill: #fff; filter: drop-shadow(0 0 8px #00FFAA); } }
    @keyframes wv-jump-3 { 0%, 25%, 100% { transform: translateY(0) scale(1); fill: #26a641; } 12.5% { transform: translateY(-12px) scale(1.3); fill: #fff; filter: drop-shadow(0 0 8px #00FFAA); } }
    @keyframes wv-jump-4 { 0%, 25%, 100% { transform: translateY(0) scale(1); fill: #39d353; } 12.5% { transform: translateY(-12px) scale(1.3); fill: #fff; filter: drop-shadow(0 0 8px #00FFAA); } }

    @media (prefers-color-scheme: light) {
      .wv-bg { fill: #ffffff; }
      .wv-border { stroke: #d0d7de; }
      .wv-cell { fill: #ebedf0; }
      .wv-l-0 { animation-name: wv-jump-l0; }
      .wv-l-1 { animation-name: wv-jump-l1; }
      .wv-l-2 { animation-name: wv-jump-l2; }
      .wv-l-3 { animation-name: wv-jump-l3; }
      .wv-l-4 { animation-name: wv-jump-l4; }
    }
    
    @keyframes wv-jump-l0 {
      0%, 25%, 100% { transform: translateY(0) scale(1); fill: #ebedf0; }
      12.5% { transform: translateY(-8px) scale(1.2); fill: #00FFAA; filter: drop-shadow(0 0 5px #00FFAA); }
    }
    @keyframes wv-jump-l1 { 0%, 25%, 100% { transform: translateY(0) scale(1); fill: #9be9a8; } 12.5% { transform: translateY(-12px) scale(1.3); fill: #00FFAA; filter: drop-shadow(0 0 8px #00FFAA); } }
    @keyframes wv-jump-l2 { 0%, 25%, 100% { transform: translateY(0) scale(1); fill: #40c463; } 12.5% { transform: translateY(-12px) scale(1.3); fill: #00FFAA; filter: drop-shadow(0 0 8px #00FFAA); } }
    @keyframes wv-jump-l3 { 0%, 25%, 100% { transform: translateY(0) scale(1); fill: #30a14e; } 12.5% { transform: translateY(-12px) scale(1.3); fill: #00FFAA; filter: drop-shadow(0 0 8px #00FFAA); } }
    @keyframes wv-jump-l4 { 0%, 25%, 100% { transform: translateY(0) scale(1); fill: #216e39; } 12.5% { transform: translateY(-12px) scale(1.3); fill: #00FFAA; filter: drop-shadow(0 0 8px #00FFAA); } }
  </style>

  <rect width="736" height="171" rx="12" class="wv-bg wv-border" stroke-width="1.5"/>
  <g id="wv-grid">
    <rect x="30" y="40" width="10" height="10" rx="2" class="wv-cell wv-l-0" style="animation-delay: 0.000s;"/>
<rect x="30" y="53" width="10" height="10" rx="2" class="wv-cell wv-l-0" style="animation-delay: 0.000s;"/>
<rect x="30" y="66" width="10" height="10" rx="2" class="wv-cell wv-l-0" style="animation-delay: 0.000s;"/>
<rect x="30" y="79" width="10" height="10" rx="2" class="wv-cell wv-l-0" style="animation-delay: 0.000s;"/>
<rect x="30" y="92" width="10" height="10" rx="2" class="wv-cell wv-l-0" style="animation-delay: 0.000s;"/>
<rect x="30" y="105" width="10" height="10" rx="2" class="wv-cell wv-l-0" style="animation-delay: 0.000s;"/>
<rect x="30" y="118" width="10" height="10" rx="2" class="wv-cell wv-l-0" style="animation-delay: 0.000s;"/>
<rect x="43" y="40" width="10" height="10" rx="2" class="wv-cell wv-l-0" style="animation-delay: 0.078s;"/>
<rect x="43" y="53" width="10" height="10" rx="2" class="wv-cell wv-l-0" style="animation-delay: 0.078s;"/>
<rect x="43" y="66" width="10" height="10" rx="2" class="wv-cell wv-l-0" style="animation-delay: 0.078s;"/>
<rect x="43" y="79" width="10" height="10" rx="2" class="wv-cell wv-l-0" style="animation-delay: 0.078s;"/>
<rect x="43" y="92" width="10" height="10" rx="2" class="wv-cell wv-l-0" style="animation-delay: 0.078s;"/>
<rect x="43" y="105" width="10" height="10" rx="2" class="wv-cell wv-l-0" style="animation-delay: 0.078s;"/>
<rect x="43" y="118" width="10" height="10" rx="2" class="wv-cell wv-l-0" style="animation-delay: 0.078s;"/>
<rect x="56" y="40" width="10" height="10" rx="2" class="wv-cell wv-l-0" style="animation-delay: 0.157s;"/>
<rect x="56" y="53" width="10" height="10" rx="2" class="wv-cell wv-l-0" style="animation-delay: 0.157s;"/>
<rect x="56" y="66" width="10" height="10" rx="2" class="wv-cell wv-l-0" style="animation-delay: 0.157s;"/>
<rect x="56" y="79" width="10" height="10" rx="2" class="wv-cell wv-l-0" style="animation-delay: 0.157s;"/>
<rect x="56" y="92" width="10" height="10" rx="2" class="wv-cell wv-l-0" style="animation-delay: 0.157s;"/>
<rect x="56" y="105" width="10" height="10" rx="2" class="wv-cell wv-l-0" style="animation-delay: 0.157s;"/>
<rect x="56" y="118" width="10" height="10" rx="2" class="wv-cell wv-l-0" style="animation-delay: 0.157s;"/>
<rect x="69" y="40" width="10" height="10" rx="2" class="wv-cell wv-l-0" style="animation-delay: 0.235s;"/>
<rect x="69" y="53" width="10" height="10" rx="2" class="wv-cell wv-l-0" style="animation-delay: 0.235s;"/>
<rect x="69" y="66" width="10" height="10" rx="2" class="wv-cell wv-l-0" style="animation-delay: 0.235s;"/>
<rect x="69" y="79" width="10" height="10" rx="2" class="wv-cell wv-l-0" style="animation-delay: 0.235s;"/>
<rect x="69" y="92" width="10" height="10" rx="2" class="wv-cell wv-l-0" style="animation-delay: 0.235s;"/>
<rect x="69" y="105" width="10" height="10" rx="2" class="wv-cell wv-l-0" style="animation-delay: 0.235s;"/>
<rect x="69" y="118" width="10" height="10" rx="2" class="wv-cell wv-l-0" style="animation-delay: 0.235s;"/>
<rect x="82" y="40" width="10" height="10" rx="2" class="wv-cell wv-l-0" style="animation-delay: 0.314s;"/>
<rect x="82" y="53" width="10" height="10" rx="2" class="wv-cell wv-l-0" style="animation-delay: 0.314s;"/>
<rect x="82" y="66" width="10" height="10" rx="2" class="wv-cell wv-l-0" style="animation-delay: 0.314s;"/>
<rect x="82" y="79" width="10" height="10" rx="2" class="wv-cell wv-l-0" style="animation-delay: 0.314s;"/>
<rect x="82" y="92" width="10" height="10" rx="2" class="wv-cell wv-l-0" style="animation-delay: 0.314s;"/>
<rect x="82" y="105" width="10" height="10" rx="2" class="wv-cell wv-l-0" style="animation-delay: 0.314s;"/>
<rect x="82" y="118" width="10" height="10" rx="2" class="wv-cell wv-l-0" style="animation-delay: 0.314s;"/>
<rect x="95" y="40" width="10" height="10" rx="2" class="wv-cell wv-l-0" style="animation-delay: 0.392s;"/>
<rect x="95" y="53" width="10" height="10" rx="2" class="wv-cell wv-l-0" style="animation-delay: 0.392s;"/>
<rect x="95" y="66" width="10" height="10" rx="2" class="wv-cell wv-l-0" style="animation-delay: 0.392s;"/>
<rect x="95" y="79" width="10" height="10" rx="2" class="wv-cell wv-l-0" style="animation-delay: 0.392s;"/>
<rect x="95" y="92" width="10" height="10" rx="2" class="wv-cell wv-l-0" style="animation-delay: 0.392s;"/>
<rect x="95" y="105" width="10" height="10" rx="2" class="wv-cell wv-l-0" style="animation-delay: 0.392s;"/>
<rect x="95" y="118" width="10" height="10" rx="2" class="wv-cell wv-l-0" style="animation-delay: 0.392s;"/>
<rect x="108" y="40" width="10" height="10" rx="2" class="wv-cell wv-l-0" style="animation-delay: 0.471s;"/>
<rect x="108" y="53" width="10" height="10" rx="2" class="wv-cell wv-l-0" style="animation-delay: 0.471s;"/>
<rect x="108" y="66" width="10" height="10" rx="2" class="wv-cell wv-l-0" style="animation-delay: 0.471s;"/>
<rect x="108" y="79" width="10" height="10" rx="2" class="wv-cell wv-l-0" style="animation-delay: 0.471s;"/>
<rect x="108" y="92" width="10" height="10" rx="2" class="wv-cell wv-l-0" style="animation-delay: 0.471s;"/>
<rect x="108" y="105" width="10" height="10" rx="2" class="wv-cell wv-l-0" style="animation-delay: 0.471s;"/>
<rect x="108" y="118" width="10" height="10" rx="2" class="wv-cell wv-l-0" style="animation-delay: 0.471s;"/>
<rect x="121" y="40" width="10" height="10" rx="2" class="wv-cell wv-l-0" style="animation-delay: 0.549s;"/>
<rect x="121" y="53" width="10" height="10" rx="2" class="wv-cell wv-l-0" style="animation-delay: 0.549s;"/>
<rect x="121" y="66" width="10" height="10" rx="2" class="wv-cell wv-l-0" style="animation-delay: 0.549s;"/>
<rect x="121" y="79" width="10" height="10" rx="2" class="wv-cell wv-l-0" style="animation-delay: 0.549s;"/>
<rect x="121" y="92" width="10" height="10" rx="2" class="wv-cell wv-l-0" style="animation-delay: 0.549s;"/>
<rect x="121" y="105" width="10" height="10" rx="2" class="wv-cell wv-l-0" style="animation-delay: 0.549s;"/>
<rect x="121" y="118" width="10" height="10" rx="2" class="wv-cell wv-l-0" style="animation-delay: 0.549s;"/>
<rect x="134" y="40" width="10" height="10" rx="2" class="wv-cell wv-l-0" style="animation-delay: 0.627s;"/>
<rect x="134" y="53" width="10" height="10" rx="2" class="wv-cell wv-l-0" style="animation-delay: 0.627s;"/>
<rect x="134" y="66" width="10" height="10" rx="2" class="wv-cell wv-l-0" style="animation-delay: 0.627s;"/>
<rect x="134" y="79" width="10" height="10" rx="2" class="wv-cell wv-l-0" style="animation-delay: 0.627s;"/>
<rect x="134" y="92" width="10" height="10" rx="2" class="wv-cell wv-l-0" style="animation-delay: 0.627s;"/>
<rect x="134" y="105" width="10" height="10" rx="2" class="wv-cell wv-l-0" style="animation-delay: 0.627s;"/>
<rect x="134" y="118" width="10" height="10" rx="2" class="wv-cell wv-l-0" style="animation-delay: 0.627s;"/>
<rect x="147" y="40" width="10" height="10" rx="2" class="wv-cell wv-l-0" style="animation-delay: 0.706s;"/>
<rect x="147" y="53" width="10" height="10" rx="2" class="wv-cell wv-l-0" style="animation-delay: 0.706s;"/>
<rect x="147" y="66" width="10" height="10" rx="2" class="wv-cell wv-l-0" style="animation-delay: 0.706s;"/>
<rect x="147" y="79" width="10" height="10" rx="2" class="wv-cell wv-l-0" style="animation-delay: 0.706s;"/>
<rect x="147" y="92" width="10" height="10" rx="2" class="wv-cell wv-l-0" style="animation-delay: 0.706s;"/>
<rect x="147" y="105" width="10" height="10" rx="2" class="wv-cell wv-l-0" style="animation-delay: 0.706s;"/>
<rect x="147" y="118" width="10" height="10" rx="2" class="wv-cell wv-l-0" style="animation-delay: 0.706s;"/>
<rect x="160" y="40" width="10" height="10" rx="2" class="wv-cell wv-l-0" style="animation-delay: 0.784s;"/>
<rect x="160" y="53" width="10" height="10" rx="2" class="wv-cell wv-l-0" style="animation-delay: 0.784s;"/>
<rect x="160" y="66" width="10" height="10" rx="2" class="wv-cell wv-l-0" style="animation-delay: 0.784s;"/>
<rect x="160" y="79" width="10" height="10" rx="2" class="wv-cell wv-l-0" style="animation-delay: 0.784s;"/>
<rect x="160" y="92" width="10" height="10" rx="2" class="wv-cell wv-l-0" style="animation-delay: 0.784s;"/>
<rect x="160" y="105" width="10" height="10" rx="2" class="wv-cell wv-l-0" style="animation-delay: 0.784s;"/>
<rect x="160" y="118" width="10" height="10" rx="2" class="wv-cell wv-l-0" style="animation-delay: 0.784s;"/>
<rect x="173" y="40" width="10" height="10" rx="2" class="wv-cell wv-l-0" style="animation-delay: 0.863s;"/>
<rect x="173" y="53" width="10" height="10" rx="2" class="wv-cell wv-l-0" style="animation-delay: 0.863s;"/>
<rect x="173" y="66" width="10" height="10" rx="2" class="wv-cell wv-l-0" style="animation-delay: 0.863s;"/>
<rect x="173" y="79" width="10" height="10" rx="2" class="wv-cell wv-l-0" style="animation-delay: 0.863s;"/>
<rect x="173" y="92" width="10" height="10" rx="2" class="wv-cell wv-l-0" style="animation-delay: 0.863s;"/>
<rect x="173" y="105" width="10" height="10" rx="2" class="wv-cell wv-l-0" style="animation-delay: 0.863s;"/>
<rect x="173" y="118" width="10" height="10" rx="2" class="wv-cell wv-l-0" style="animation-delay: 0.863s;"/>
<rect x="186" y="40" width="10" height="10" rx="2" class="wv-cell wv-l-0" style="animation-delay: 0.941s;"/>
<rect x="186" y="53" width="10" height="10" rx="2" class="wv-cell wv-l-0" style="animation-delay: 0.941s;"/>
<rect x="186" y="66" width="10" height="10" rx="2" class="wv-cell wv-l-0" style="animation-delay: 0.941s;"/>
<rect x="186" y="79" width="10" height="10" rx="2" class="wv-cell wv-l-0" style="animation-delay: 0.941s;"/>
<rect x="186" y="92" width="10" height="10" rx="2" class="wv-cell wv-l-0" style="animation-delay: 0.941s;"/>
<rect x="186" y="105" width="10" height="10" rx="2" class="wv-cell wv-l-0" style="animation-delay: 0.941s;"/>
<rect x="186" y="118" width="10" height="10" rx="2" class="wv-cell wv-l-0" style="animation-delay: 0.941s;"/>
<rect x="199" y="40" width="10" height="10" rx="2" class="wv-cell wv-l-0" style="animation-delay: 1.020s;"/>
<rect x="199" y="53" width="10" height="10" rx="2" class="wv-cell wv-l-0" style="animation-delay: 1.020s;"/>
<rect x="199" y="66" width="10" height="10" rx="2" class="wv-cell wv-l-0" style="animation-delay: 1.020s;"/>
<rect x="199" y="79" width="10" height="10" rx="2" class="wv-cell wv-l-0" style="animation-delay: 1.020s;"/>
<rect x="199" y="92" width="10" height="10" rx="2" class="wv-cell wv-l-0" style="animation-delay: 1.020s;"/>
<rect x="199" y="105" width="10" height="10" rx="2" class="wv-cell wv-l-0" style="animation-delay: 1.020s;"/>
<rect x="199" y="118" width="10" height="10" rx="2" class="wv-cell wv-l-0" style="animation-delay: 1.020s;"/>
<rect x="212" y="40" width="10" height="10" rx="2" class="wv-cell wv-l-0" style="animation-delay: 1.098s;"/>
<rect x="212" y="53" width="10" height="10" rx="2" class="wv-cell wv-l-0" style="animation-delay: 1.098s;"/>
<rect x="212" y="66" width="10" height="10" rx="2" class="wv-cell wv-l-0" style="animation-delay: 1.098s;"/>
<rect x="212" y="79" width="10" height="10" rx="2" class="wv-cell wv-l-0" style="animation-delay: 1.098s;"/>
<rect x="212" y="92" width="10" height="10" rx="2" class="wv-cell wv-l-0" style="animation-delay: 1.098s;"/>
<rect x="212" y="105" width="10" height="10" rx="2" class="wv-cell wv-l-0" style="animation-delay: 1.098s;"/>
<rect x="212" y="118" width="10" height="10" rx="2" class="wv-cell wv-l-0" style="animation-delay: 1.098s;"/>
<rect x="225" y="40" width="10" height="10" rx="2" class="wv-cell wv-l-0" style="animation-delay: 1.176s;"/>
<rect x="225" y="53" width="10" height="10" rx="2" class="wv-cell wv-l-0" style="animation-delay: 1.176s;"/>
<rect x="225" y="66" width="10" height="10" rx="2" class="wv-cell wv-l-0" style="animation-delay: 1.176s;"/>
<rect x="225" y="79" width="10" height="10" rx="2" class="wv-cell wv-l-0" style="animation-delay: 1.176s;"/>
<rect x="225" y="92" width="10" height="10" rx="2" class="wv-cell wv-l-0" style="animation-delay: 1.176s;"/>
<rect x="225" y="105" width="10" height="10" rx="2" class="wv-cell wv-l-0" style="animation-delay: 1.176s;"/>
<rect x="225" y="118" width="10" height="10" rx="2" class="wv-cell wv-l-0" style="animation-delay: 1.176s;"/>
<rect x="238" y="40" width="10" height="10" rx="2" class="wv-cell wv-l-0" style="animation-delay: 1.255s;"/>
<rect x="238" y="53" width="10" height="10" rx="2" class="wv-cell wv-l-0" style="animation-delay: 1.255s;"/>
<rect x="238" y="66" width="10" height="10" rx="2" class="wv-cell wv-l-0" style="animation-delay: 1.255s;"/>
<rect x="238" y="79" width="10" height="10" rx="2" class="wv-cell wv-l-0" style="animation-delay: 1.255s;"/>
<rect x="238" y="92" width="10" height="10" rx="2" class="wv-cell wv-l-0" style="animation-delay: 1.255s;"/>
<rect x="238" y="105" width="10" height="10" rx="2" class="wv-cell wv-l-0" style="animation-delay: 1.255s;"/>
<rect x="238" y="118" width="10" height="10" rx="2" class="wv-cell wv-l-0" style="animation-delay: 1.255s;"/>
<rect x="251" y="40" width="10" height="10" rx="2" class="wv-cell wv-l-0" style="animation-delay: 1.333s;"/>
<rect x="251" y="53" width="10" height="10" rx="2" class="wv-cell wv-l-0" style="animation-delay: 1.333s;"/>
<rect x="251" y="66" width="10" height="10" rx="2" class="wv-cell wv-l-0" style="animation-delay: 1.333s;"/>
<rect x="251" y="79" width="10" height="10" rx="2" class="wv-cell wv-l-0" style="animation-delay: 1.333s;"/>
<rect x="251" y="92" width="10" height="10" rx="2" class="wv-cell wv-l-0" style="animation-delay: 1.333s;"/>
<rect x="251" y="105" width="10" height="10" rx="2" class="wv-cell wv-l-0" style="animation-delay: 1.333s;"/>
<rect x="251" y="118" width="10" height="10" rx="2" class="wv-cell wv-l-0" style="animation-delay: 1.333s;"/>
<rect x="264" y="40" width="10" height="10" rx="2" class="wv-cell wv-l-0" style="animation-delay: 1.412s;"/>
<rect x="264" y="53" width="10" height="10" rx="2" class="wv-cell wv-l-0" style="animation-delay: 1.412s;"/>
<rect x="264" y="66" width="10" height="10" rx="2" class="wv-cell wv-l-0" style="animation-delay: 1.412s;"/>
<rect x="264" y="79" width="10" height="10" rx="2" class="wv-cell wv-l-0" style="animation-delay: 1.412s;"/>
<rect x="264" y="92" width="10" height="10" rx="2" class="wv-cell wv-l-0" style="animation-delay: 1.412s;"/>
<rect x="264" y="105" width="10" height="10" rx="2" class="wv-cell wv-l-0" style="animation-delay: 1.412s;"/>
<rect x="264" y="118" width="10" height="10" rx="2" class="wv-cell wv-l-0" style="animation-delay: 1.412s;"/>
<rect x="277" y="40" width="10" height="10" rx="2" class="wv-cell wv-l-0" style="animation-delay: 1.490s;"/>
<rect x="277" y="53" width="10" height="10" rx="2" class="wv-cell wv-l-0" style="animation-delay: 1.490s;"/>
<rect x="277" y="66" width="10" height="10" rx="2" class="wv-cell wv-l-0" style="animation-delay: 1.490s;"/>
<rect x="277" y="79" width="10" height="10" rx="2" class="wv-cell wv-l-0" style="animation-delay: 1.490s;"/>
<rect x="277" y="92" width="10" height="10" rx="2" class="wv-cell wv-l-0" style="animation-delay: 1.490s;"/>
<rect x="277" y="105" width="10" height="10" rx="2" class="wv-cell wv-l-0" style="animation-delay: 1.490s;"/>
<rect x="277" y="118" width="10" height="10" rx="2" class="wv-cell wv-l-0" style="animation-delay: 1.490s;"/>
<rect x="290" y="40" width="10" height="10" rx="2" class="wv-cell wv-l-4" style="animation-delay: 1.569s;"/>
<rect x="290" y="53" width="10" height="10" rx="2" class="wv-cell wv-l-4" style="animation-delay: 1.569s;"/>
<rect x="290" y="66" width="10" height="10" rx="2" class="wv-cell wv-l-4" style="animation-delay: 1.569s;"/>
<rect x="290" y="79" width="10" height="10" rx="2" class="wv-cell wv-l-4" style="animation-delay: 1.569s;"/>
<rect x="290" y="92" width="10" height="10" rx="2" class="wv-cell wv-l-4" style="animation-delay: 1.569s;"/>
<rect x="290" y="105" width="10" height="10" rx="2" class="wv-cell wv-l-4" style="animation-delay: 1.569s;"/>
<rect x="290" y="118" width="10" height="10" rx="2" class="wv-cell wv-l-4" style="animation-delay: 1.569s;"/>
<rect x="303" y="40" width="10" height="10" rx="2" class="wv-cell wv-l-2" style="animation-delay: 1.647s;"/>
<rect x="303" y="53" width="10" height="10" rx="2" class="wv-cell wv-l-2" style="animation-delay: 1.647s;"/>
<rect x="303" y="66" width="10" height="10" rx="2" class="wv-cell wv-l-3" style="animation-delay: 1.647s;"/>
<rect x="303" y="79" width="10" height="10" rx="2" class="wv-cell wv-l-1" style="animation-delay: 1.647s;"/>
<rect x="303" y="92" width="10" height="10" rx="2" class="wv-cell wv-l-1" style="animation-delay: 1.647s;"/>
<rect x="303" y="105" width="10" height="10" rx="2" class="wv-cell wv-l-0" style="animation-delay: 1.647s;"/>
<rect x="303" y="118" width="10" height="10" rx="2" class="wv-cell wv-l-2" style="animation-delay: 1.647s;"/>
<rect x="316" y="40" width="10" height="10" rx="2" class="wv-cell wv-l-4" style="animation-delay: 1.725s;"/>
<rect x="316" y="53" width="10" height="10" rx="2" class="wv-cell wv-l-4" style="animation-delay: 1.725s;"/>
<rect x="316" y="66" width="10" height="10" rx="2" class="wv-cell wv-l-3" style="animation-delay: 1.725s;"/>
<rect x="316" y="79" width="10" height="10" rx="2" class="wv-cell wv-l-3" style="animation-delay: 1.725s;"/>
<rect x="316" y="92" width="10" height="10" rx="2" class="wv-cell wv-l-4" style="animation-delay: 1.725s;"/>
<rect x="316" y="105" width="10" height="10" rx="2" class="wv-cell wv-l-4" style="animation-delay: 1.725s;"/>
<rect x="316" y="118" width="10" height="10" rx="2" class="wv-cell wv-l-3" style="animation-delay: 1.725s;"/>
<rect x="329" y="40" width="10" height="10" rx="2" class="wv-cell wv-l-0" style="animation-delay: 1.804s;"/>
<rect x="329" y="53" width="10" height="10" rx="2" class="wv-cell wv-l-0" style="animation-delay: 1.804s;"/>
<rect x="329" y="66" width="10" height="10" rx="2" class="wv-cell wv-l-0" style="animation-delay: 1.804s;"/>
<rect x="329" y="79" width="10" height="10" rx="2" class="wv-cell wv-l-0" style="animation-delay: 1.804s;"/>
<rect x="329" y="92" width="10" height="10" rx="2" class="wv-cell wv-l-1" style="animation-delay: 1.804s;"/>
<rect x="329" y="105" width="10" height="10" rx="2" class="wv-cell wv-l-0" style="animation-delay: 1.804s;"/>
<rect x="329" y="118" width="10" height="10" rx="2" class="wv-cell wv-l-3" style="animation-delay: 1.804s;"/>
<rect x="342" y="40" width="10" height="10" rx="2" class="wv-cell wv-l-0" style="animation-delay: 1.882s;"/>
<rect x="342" y="53" width="10" height="10" rx="2" class="wv-cell wv-l-0" style="animation-delay: 1.882s;"/>
<rect x="342" y="66" width="10" height="10" rx="2" class="wv-cell wv-l-0" style="animation-delay: 1.882s;"/>
<rect x="342" y="79" width="10" height="10" rx="2" class="wv-cell wv-l-0" style="animation-delay: 1.882s;"/>
<rect x="342" y="92" width="10" height="10" rx="2" class="wv-cell wv-l-0" style="animation-delay: 1.882s;"/>
<rect x="342" y="105" width="10" height="10" rx="2" class="wv-cell wv-l-0" style="animation-delay: 1.882s;"/>
<rect x="342" y="118" width="10" height="10" rx="2" class="wv-cell wv-l-0" style="animation-delay: 1.882s;"/>
<rect x="355" y="40" width="10" height="10" rx="2" class="wv-cell wv-l-0" style="animation-delay: 1.961s;"/>
<rect x="355" y="53" width="10" height="10" rx="2" class="wv-cell wv-l-0" style="animation-delay: 1.961s;"/>
<rect x="355" y="66" width="10" height="10" rx="2" class="wv-cell wv-l-0" style="animation-delay: 1.961s;"/>
<rect x="355" y="79" width="10" height="10" rx="2" class="wv-cell wv-l-0" style="animation-delay: 1.961s;"/>
<rect x="355" y="92" width="10" height="10" rx="2" class="wv-cell wv-l-0" style="animation-delay: 1.961s;"/>
<rect x="355" y="105" width="10" height="10" rx="2" class="wv-cell wv-l-0" style="animation-delay: 1.961s;"/>
<rect x="355" y="118" width="10" height="10" rx="2" class="wv-cell wv-l-0" style="animation-delay: 1.961s;"/>
<rect x="368" y="40" width="10" height="10" rx="2" class="wv-cell wv-l-0" style="animation-delay: 2.039s;"/>
<rect x="368" y="53" width="10" height="10" rx="2" class="wv-cell wv-l-0" style="animation-delay: 2.039s;"/>
<rect x="368" y="66" width="10" height="10" rx="2" class="wv-cell wv-l-0" style="animation-delay: 2.039s;"/>
<rect x="368" y="79" width="10" height="10" rx="2" class="wv-cell wv-l-0" style="animation-delay: 2.039s;"/>
<rect x="368" y="92" width="10" height="10" rx="2" class="wv-cell wv-l-0" style="animation-delay: 2.039s;"/>
<rect x="368" y="105" width="10" height="10" rx="2" class="wv-cell wv-l-0" style="animation-delay: 2.039s;"/>
<rect x="368" y="118" width="10" height="10" rx="2" class="wv-cell wv-l-0" style="animation-delay: 2.039s;"/>
<rect x="381" y="40" width="10" height="10" rx="2" class="wv-cell wv-l-0" style="animation-delay: 2.118s;"/>
<rect x="381" y="53" width="10" height="10" rx="2" class="wv-cell wv-l-0" style="animation-delay: 2.118s;"/>
<rect x="381" y="66" width="10" height="10" rx="2" class="wv-cell wv-l-0" style="animation-delay: 2.118s;"/>
<rect x="381" y="79" width="10" height="10" rx="2" class="wv-cell wv-l-0" style="animation-delay: 2.118s;"/>
<rect x="381" y="92" width="10" height="10" rx="2" class="wv-cell wv-l-0" style="animation-delay: 2.118s;"/>
<rect x="381" y="105" width="10" height="10" rx="2" class="wv-cell wv-l-0" style="animation-delay: 2.118s;"/>
<rect x="381" y="118" width="10" height="10" rx="2" class="wv-cell wv-l-0" style="animation-delay: 2.118s;"/>
<rect x="394" y="40" width="10" height="10" rx="2" class="wv-cell wv-l-0" style="animation-delay: 2.196s;"/>
<rect x="394" y="53" width="10" height="10" rx="2" class="wv-cell wv-l-0" style="animation-delay: 2.196s;"/>
<rect x="394" y="66" width="10" height="10" rx="2" class="wv-cell wv-l-0" style="animation-delay: 2.196s;"/>
<rect x="394" y="79" width="10" height="10" rx="2" class="wv-cell wv-l-0" style="animation-delay: 2.196s;"/>
<rect x="394" y="92" width="10" height="10" rx="2" class="wv-cell wv-l-0" style="animation-delay: 2.196s;"/>
<rect x="394" y="105" width="10" height="10" rx="2" class="wv-cell wv-l-0" style="animation-delay: 2.196s;"/>
<rect x="394" y="118" width="10" height="10" rx="2" class="wv-cell wv-l-0" style="animation-delay: 2.196s;"/>
<rect x="407" y="40" width="10" height="10" rx="2" class="wv-cell wv-l-0" style="animation-delay: 2.275s;"/>
<rect x="407" y="53" width="10" height="10" rx="2" class="wv-cell wv-l-0" style="animation-delay: 2.275s;"/>
<rect x="407" y="66" width="10" height="10" rx="2" class="wv-cell wv-l-0" style="animation-delay: 2.275s;"/>
<rect x="407" y="79" width="10" height="10" rx="2" class="wv-cell wv-l-0" style="animation-delay: 2.275s;"/>
<rect x="407" y="92" width="10" height="10" rx="2" class="wv-cell wv-l-0" style="animation-delay: 2.275s;"/>
<rect x="407" y="105" width="10" height="10" rx="2" class="wv-cell wv-l-0" style="animation-delay: 2.275s;"/>
<rect x="407" y="118" width="10" height="10" rx="2" class="wv-cell wv-l-0" style="animation-delay: 2.275s;"/>
<rect x="420" y="40" width="10" height="10" rx="2" class="wv-cell wv-l-0" style="animation-delay: 2.353s;"/>
<rect x="420" y="53" width="10" height="10" rx="2" class="wv-cell wv-l-0" style="animation-delay: 2.353s;"/>
<rect x="420" y="66" width="10" height="10" rx="2" class="wv-cell wv-l-0" style="animation-delay: 2.353s;"/>
<rect x="420" y="79" width="10" height="10" rx="2" class="wv-cell wv-l-0" style="animation-delay: 2.353s;"/>
<rect x="420" y="92" width="10" height="10" rx="2" class="wv-cell wv-l-0" style="animation-delay: 2.353s;"/>
<rect x="420" y="105" width="10" height="10" rx="2" class="wv-cell wv-l-0" style="animation-delay: 2.353s;"/>
<rect x="420" y="118" width="10" height="10" rx="2" class="wv-cell wv-l-0" style="animation-delay: 2.353s;"/>
<rect x="433" y="40" width="10" height="10" rx="2" class="wv-cell wv-l-0" style="animation-delay: 2.431s;"/>
<rect x="433" y="53" width="10" height="10" rx="2" class="wv-cell wv-l-0" style="animation-delay: 2.431s;"/>
<rect x="433" y="66" width="10" height="10" rx="2" class="wv-cell wv-l-2" style="animation-delay: 2.431s;"/>
<rect x="433" y="79" width="10" height="10" rx="2" class="wv-cell wv-l-0" style="animation-delay: 2.431s;"/>
<rect x="433" y="92" width="10" height="10" rx="2" class="wv-cell wv-l-3" style="animation-delay: 2.431s;"/>
<rect x="433" y="105" width="10" height="10" rx="2" class="wv-cell wv-l-0" style="animation-delay: 2.431s;"/>
<rect x="433" y="118" width="10" height="10" rx="2" class="wv-cell wv-l-0" style="animation-delay: 2.431s;"/>
<rect x="446" y="40" width="10" height="10" rx="2" class="wv-cell wv-l-0" style="animation-delay: 2.510s;"/>
<rect x="446" y="53" width="10" height="10" rx="2" class="wv-cell wv-l-0" style="animation-delay: 2.510s;"/>
<rect x="446" y="66" width="10" height="10" rx="2" class="wv-cell wv-l-2" style="animation-delay: 2.510s;"/>
<rect x="446" y="79" width="10" height="10" rx="2" class="wv-cell wv-l-1" style="animation-delay: 2.510s;"/>
<rect x="446" y="92" width="10" height="10" rx="2" class="wv-cell wv-l-1" style="animation-delay: 2.510s;"/>
<rect x="446" y="105" width="10" height="10" rx="2" class="wv-cell wv-l-1" style="animation-delay: 2.510s;"/>
<rect x="446" y="118" width="10" height="10" rx="2" class="wv-cell wv-l-0" style="animation-delay: 2.510s;"/>
<rect x="459" y="40" width="10" height="10" rx="2" class="wv-cell wv-l-0" style="animation-delay: 2.588s;"/>
<rect x="459" y="53" width="10" height="10" rx="2" class="wv-cell wv-l-0" style="animation-delay: 2.588s;"/>
<rect x="459" y="66" width="10" height="10" rx="2" class="wv-cell wv-l-0" style="animation-delay: 2.588s;"/>
<rect x="459" y="79" width="10" height="10" rx="2" class="wv-cell wv-l-0" style="animation-delay: 2.588s;"/>
<rect x="459" y="92" width="10" height="10" rx="2" class="wv-cell wv-l-0" style="animation-delay: 2.588s;"/>
<rect x="459" y="105" width="10" height="10" rx="2" class="wv-cell wv-l-0" style="animation-delay: 2.588s;"/>
<rect x="459" y="118" width="10" height="10" rx="2" class="wv-cell wv-l-0" style="animation-delay: 2.588s;"/>
<rect x="472" y="40" width="10" height="10" rx="2" class="wv-cell wv-l-0" style="animation-delay: 2.667s;"/>
<rect x="472" y="53" width="10" height="10" rx="2" class="wv-cell wv-l-0" style="animation-delay: 2.667s;"/>
<rect x="472" y="66" width="10" height="10" rx="2" class="wv-cell wv-l-0" style="animation-delay: 2.667s;"/>
<rect x="472" y="79" width="10" height="10" rx="2" class="wv-cell wv-l-0" style="animation-delay: 2.667s;"/>
<rect x="472" y="92" width="10" height="10" rx="2" class="wv-cell wv-l-0" style="animation-delay: 2.667s;"/>
<rect x="472" y="105" width="10" height="10" rx="2" class="wv-cell wv-l-0" style="animation-delay: 2.667s;"/>
<rect x="472" y="118" width="10" height="10" rx="2" class="wv-cell wv-l-0" style="animation-delay: 2.667s;"/>
<rect x="485" y="40" width="10" height="10" rx="2" class="wv-cell wv-l-0" style="animation-delay: 2.745s;"/>
<rect x="485" y="53" width="10" height="10" rx="2" class="wv-cell wv-l-0" style="animation-delay: 2.745s;"/>
<rect x="485" y="66" width="10" height="10" rx="2" class="wv-cell wv-l-0" style="animation-delay: 2.745s;"/>
<rect x="485" y="79" width="10" height="10" rx="2" class="wv-cell wv-l-0" style="animation-delay: 2.745s;"/>
<rect x="485" y="92" width="10" height="10" rx="2" class="wv-cell wv-l-0" style="animation-delay: 2.745s;"/>
<rect x="485" y="105" width="10" height="10" rx="2" class="wv-cell wv-l-0" style="animation-delay: 2.745s;"/>
<rect x="485" y="118" width="10" height="10" rx="2" class="wv-cell wv-l-0" style="animation-delay: 2.745s;"/>
<rect x="498" y="40" width="10" height="10" rx="2" class="wv-cell wv-l-0" style="animation-delay: 2.824s;"/>
<rect x="498" y="53" width="10" height="10" rx="2" class="wv-cell wv-l-0" style="animation-delay: 2.824s;"/>
<rect x="498" y="66" width="10" height="10" rx="2" class="wv-cell wv-l-0" style="animation-delay: 2.824s;"/>
<rect x="498" y="79" width="10" height="10" rx="2" class="wv-cell wv-l-0" style="animation-delay: 2.824s;"/>
<rect x="498" y="92" width="10" height="10" rx="2" class="wv-cell wv-l-0" style="animation-delay: 2.824s;"/>
<rect x="498" y="105" width="10" height="10" rx="2" class="wv-cell wv-l-0" style="animation-delay: 2.824s;"/>
<rect x="498" y="118" width="10" height="10" rx="2" class="wv-cell wv-l-0" style="animation-delay: 2.824s;"/>
<rect x="511" y="40" width="10" height="10" rx="2" class="wv-cell wv-l-0" style="animation-delay: 2.902s;"/>
<rect x="511" y="53" width="10" height="10" rx="2" class="wv-cell wv-l-1" style="animation-delay: 2.902s;"/>
<rect x="511" y="66" width="10" height="10" rx="2" class="wv-cell wv-l-2" style="animation-delay: 2.902s;"/>
<rect x="511" y="79" width="10" height="10" rx="2" class="wv-cell wv-l-0" style="animation-delay: 2.902s;"/>
<rect x="511" y="92" width="10" height="10" rx="2" class="wv-cell wv-l-0" style="animation-delay: 2.902s;"/>
<rect x="511" y="105" width="10" height="10" rx="2" class="wv-cell wv-l-0" style="animation-delay: 2.902s;"/>
<rect x="511" y="118" width="10" height="10" rx="2" class="wv-cell wv-l-0" style="animation-delay: 2.902s;"/>
<rect x="524" y="40" width="10" height="10" rx="2" class="wv-cell wv-l-0" style="animation-delay: 2.980s;"/>
<rect x="524" y="53" width="10" height="10" rx="2" class="wv-cell wv-l-0" style="animation-delay: 2.980s;"/>
<rect x="524" y="66" width="10" height="10" rx="2" class="wv-cell wv-l-0" style="animation-delay: 2.980s;"/>
<rect x="524" y="79" width="10" height="10" rx="2" class="wv-cell wv-l-0" style="animation-delay: 2.980s;"/>
<rect x="524" y="92" width="10" height="10" rx="2" class="wv-cell wv-l-0" style="animation-delay: 2.980s;"/>
<rect x="524" y="105" width="10" height="10" rx="2" class="wv-cell wv-l-0" style="animation-delay: 2.980s;"/>
<rect x="524" y="118" width="10" height="10" rx="2" class="wv-cell wv-l-3" style="animation-delay: 2.980s;"/>
<rect x="537" y="40" width="10" height="10" rx="2" class="wv-cell wv-l-0" style="animation-delay: 3.059s;"/>
<rect x="537" y="53" width="10" height="10" rx="2" class="wv-cell wv-l-3" style="animation-delay: 3.059s;"/>
<rect x="537" y="66" width="10" height="10" rx="2" class="wv-cell wv-l-4" style="animation-delay: 3.059s;"/>
<rect x="537" y="79" width="10" height="10" rx="2" class="wv-cell wv-l-2" style="animation-delay: 3.059s;"/>
<rect x="537" y="92" width="10" height="10" rx="2" class="wv-cell wv-l-3" style="animation-delay: 3.059s;"/>
<rect x="537" y="105" width="10" height="10" rx="2" class="wv-cell wv-l-2" style="animation-delay: 3.059s;"/>
<rect x="537" y="118" width="10" height="10" rx="2" class="wv-cell wv-l-4" style="animation-delay: 3.059s;"/>
<rect x="550" y="40" width="10" height="10" rx="2" class="wv-cell wv-l-3" style="animation-delay: 3.137s;"/>
<rect x="550" y="53" width="10" height="10" rx="2" class="wv-cell wv-l-2" style="animation-delay: 3.137s;"/>
<rect x="550" y="66" width="10" height="10" rx="2" class="wv-cell wv-l-0" style="animation-delay: 3.137s;"/>
<rect x="550" y="79" width="10" height="10" rx="2" class="wv-cell wv-l-3" style="animation-delay: 3.137s;"/>
<rect x="550" y="92" width="10" height="10" rx="2" class="wv-cell wv-l-4" style="animation-delay: 3.137s;"/>
<rect x="550" y="105" width="10" height="10" rx="2" class="wv-cell wv-l-4" style="animation-delay: 3.137s;"/>
<rect x="550" y="118" width="10" height="10" rx="2" class="wv-cell wv-l-4" style="animation-delay: 3.137s;"/>
<rect x="563" y="40" width="10" height="10" rx="2" class="wv-cell wv-l-4" style="animation-delay: 3.216s;"/>
<rect x="563" y="53" width="10" height="10" rx="2" class="wv-cell wv-l-4" style="animation-delay: 3.216s;"/>
<rect x="563" y="66" width="10" height="10" rx="2" class="wv-cell wv-l-4" style="animation-delay: 3.216s;"/>
<rect x="563" y="79" width="10" height="10" rx="2" class="wv-cell wv-l-4" style="animation-delay: 3.216s;"/>
<rect x="563" y="92" width="10" height="10" rx="2" class="wv-cell wv-l-2" style="animation-delay: 3.216s;"/>
<rect x="563" y="105" width="10" height="10" rx="2" class="wv-cell wv-l-0" style="animation-delay: 3.216s;"/>
<rect x="563" y="118" width="10" height="10" rx="2" class="wv-cell wv-l-1" style="animation-delay: 3.216s;"/>
<rect x="576" y="40" width="10" height="10" rx="2" class="wv-cell wv-l-1" style="animation-delay: 3.294s;"/>
<rect x="576" y="53" width="10" height="10" rx="2" class="wv-cell wv-l-2" style="animation-delay: 3.294s;"/>
<rect x="576" y="66" width="10" height="10" rx="2" class="wv-cell wv-l-1" style="animation-delay: 3.294s;"/>
<rect x="576" y="79" width="10" height="10" rx="2" class="wv-cell wv-l-0" style="animation-delay: 3.294s;"/>
<rect x="576" y="92" width="10" height="10" rx="2" class="wv-cell wv-l-0" style="animation-delay: 3.294s;"/>
<rect x="576" y="105" width="10" height="10" rx="2" class="wv-cell wv-l-0" style="animation-delay: 3.294s;"/>
<rect x="576" y="118" width="10" height="10" rx="2" class="wv-cell wv-l-2" style="animation-delay: 3.294s;"/>
<rect x="589" y="40" width="10" height="10" rx="2" class="wv-cell wv-l-2" style="animation-delay: 3.373s;"/>
<rect x="589" y="53" width="10" height="10" rx="2" class="wv-cell wv-l-3" style="animation-delay: 3.373s;"/>
<rect x="589" y="66" width="10" height="10" rx="2" class="wv-cell wv-l-3" style="animation-delay: 3.373s;"/>
<rect x="589" y="79" width="10" height="10" rx="2" class="wv-cell wv-l-1" style="animation-delay: 3.373s;"/>
<rect x="589" y="92" width="10" height="10" rx="2" class="wv-cell wv-l-1" style="animation-delay: 3.373s;"/>
<rect x="589" y="105" width="10" height="10" rx="2" class="wv-cell wv-l-1" style="animation-delay: 3.373s;"/>
<rect x="589" y="118" width="10" height="10" rx="2" class="wv-cell wv-l-4" style="animation-delay: 3.373s;"/>
<rect x="602" y="40" width="10" height="10" rx="2" class="wv-cell wv-l-1" style="animation-delay: 3.451s;"/>
<rect x="602" y="53" width="10" height="10" rx="2" class="wv-cell wv-l-0" style="animation-delay: 3.451s;"/>
<rect x="602" y="66" width="10" height="10" rx="2" class="wv-cell wv-l-0" style="animation-delay: 3.451s;"/>
<rect x="602" y="79" width="10" height="10" rx="2" class="wv-cell wv-l-3" style="animation-delay: 3.451s;"/>
<rect x="602" y="92" width="10" height="10" rx="2" class="wv-cell wv-l-4" style="animation-delay: 3.451s;"/>
<rect x="602" y="105" width="10" height="10" rx="2" class="wv-cell wv-l-1" style="animation-delay: 3.451s;"/>
<rect x="602" y="118" width="10" height="10" rx="2" class="wv-cell wv-l-2" style="animation-delay: 3.451s;"/>
<rect x="615" y="40" width="10" height="10" rx="2" class="wv-cell wv-l-4" style="animation-delay: 3.529s;"/>
<rect x="615" y="53" width="10" height="10" rx="2" class="wv-cell wv-l-0" style="animation-delay: 3.529s;"/>
<rect x="615" y="66" width="10" height="10" rx="2" class="wv-cell wv-l-0" style="animation-delay: 3.529s;"/>
<rect x="615" y="79" width="10" height="10" rx="2" class="wv-cell wv-l-0" style="animation-delay: 3.529s;"/>
<rect x="615" y="92" width="10" height="10" rx="2" class="wv-cell wv-l-4" style="animation-delay: 3.529s;"/>
<rect x="615" y="105" width="10" height="10" rx="2" class="wv-cell wv-l-4" style="animation-delay: 3.529s;"/>
<rect x="615" y="118" width="10" height="10" rx="2" class="wv-cell wv-l-4" style="animation-delay: 3.529s;"/>
<rect x="628" y="40" width="10" height="10" rx="2" class="wv-cell wv-l-4" style="animation-delay: 3.608s;"/>
<rect x="628" y="53" width="10" height="10" rx="2" class="wv-cell wv-l-4" style="animation-delay: 3.608s;"/>
<rect x="628" y="66" width="10" height="10" rx="2" class="wv-cell wv-l-4" style="animation-delay: 3.608s;"/>
<rect x="628" y="79" width="10" height="10" rx="2" class="wv-cell wv-l-0" style="animation-delay: 3.608s;"/>
<rect x="628" y="92" width="10" height="10" rx="2" class="wv-cell wv-l-0" style="animation-delay: 3.608s;"/>
<rect x="628" y="105" width="10" height="10" rx="2" class="wv-cell wv-l-3" style="animation-delay: 3.608s;"/>
<rect x="628" y="118" width="10" height="10" rx="2" class="wv-cell wv-l-4" style="animation-delay: 3.608s;"/>
<rect x="641" y="40" width="10" height="10" rx="2" class="wv-cell wv-l-0" style="animation-delay: 3.686s;"/>
<rect x="641" y="53" width="10" height="10" rx="2" class="wv-cell wv-l-0" style="animation-delay: 3.686s;"/>
<rect x="641" y="66" width="10" height="10" rx="2" class="wv-cell wv-l-0" style="animation-delay: 3.686s;"/>
<rect x="641" y="79" width="10" height="10" rx="2" class="wv-cell wv-l-0" style="animation-delay: 3.686s;"/>
<rect x="641" y="92" width="10" height="10" rx="2" class="wv-cell wv-l-0" style="animation-delay: 3.686s;"/>
<rect x="641" y="105" width="10" height="10" rx="2" class="wv-cell wv-l-0" style="animation-delay: 3.686s;"/>
<rect x="641" y="118" width="10" height="10" rx="2" class="wv-cell wv-l-0" style="animation-delay: 3.686s;"/>
<rect x="654" y="40" width="10" height="10" rx="2" class="wv-cell wv-l-0" style="animation-delay: 3.765s;"/>
<rect x="654" y="53" width="10" height="10" rx="2" class="wv-cell wv-l-0" style="animation-delay: 3.765s;"/>
<rect x="654" y="66" width="10" height="10" rx="2" class="wv-cell wv-l-4" style="animation-delay: 3.765s;"/>
<rect x="654" y="79" width="10" height="10" rx="2" class="wv-cell wv-l-0" style="animation-delay: 3.765s;"/>
<rect x="654" y="92" width="10" height="10" rx="2" class="wv-cell wv-l-4" style="animation-delay: 3.765s;"/>
<rect x="654" y="105" width="10" height="10" rx="2" class="wv-cell wv-l-1" style="animation-delay: 3.765s;"/>
<rect x="654" y="118" width="10" height="10" rx="2" class="wv-cell wv-l-0" style="animation-delay: 3.765s;"/>
<rect x="667" y="40" width="10" height="10" rx="2" class="wv-cell wv-l-2" style="animation-delay: 3.843s;"/>
<rect x="667" y="53" width="10" height="10" rx="2" class="wv-cell wv-l-1" style="animation-delay: 3.843s;"/>
<rect x="667" y="66" width="10" height="10" rx="2" class="wv-cell wv-l-0" style="animation-delay: 3.843s;"/>
<rect x="667" y="79" width="10" height="10" rx="2" class="wv-cell wv-l-2" style="animation-delay: 3.843s;"/>
<rect x="667" y="92" width="10" height="10" rx="2" class="wv-cell wv-l-0" style="animation-delay: 3.843s;"/>
<rect x="667" y="105" width="10" height="10" rx="2" class="wv-cell wv-l-0" style="animation-delay: 3.843s;"/>
<rect x="667" y="118" width="10" height="10" rx="2" class="wv-cell wv-l-0" style="animation-delay: 3.843s;"/>
<rect x="680" y="40" width="10" height="10" rx="2" class="wv-cell wv-l-0" style="animation-delay: 3.922s;"/>
<rect x="680" y="53" width="10" height="10" rx="2" class="wv-cell wv-l-0" style="animation-delay: 3.922s;"/>
<rect x="680" y="66" width="10" height="10" rx="2" class="wv-cell wv-l-0" style="animation-delay: 3.922s;"/>
<rect x="680" y="79" width="10" height="10" rx="2" class="wv-cell wv-l-0" style="animation-delay: 3.922s;"/>
<rect x="680" y="92" width="10" height="10" rx="2" class="wv-cell wv-l-0" style="animation-delay: 3.922s;"/>
<rect x="680" y="105" width="10" height="10" rx="2" class="wv-cell wv-l-0" style="animation-delay: 3.922s;"/>
<rect x="680" y="118" width="10" height="10" rx="2" class="wv-cell wv-l-0" style="animation-delay: 3.922s;"/>
<rect x="693" y="40" width="10" height="10" rx="2" class="wv-cell wv-l-0" style="animation-delay: 4.000s;"/>
<rect x="693" y="53" width="10" height="10" rx="2" class="wv-cell wv-l-1" style="animation-delay: 4.000s;"/>
<rect x="693" y="66" width="10" height="10" rx="2" class="wv-cell wv-l-0" style="animation-delay: 4.000s;"/>
<rect x="693" y="79" width="10" height="10" rx="2" class="wv-cell wv-l-0" style="animation-delay: 4.000s;"/>
<rect x="693" y="92" width="10" height="10" rx="2" class="wv-cell wv-l-1" style="animation-delay: 4.000s;"/>
<rect x="693" y="105" width="10" height="10" rx="2" class="wv-cell wv-l-0" style="animation-delay: 4.000s;"/>

  </g>
</svg>